<svg id="Logo-Twitter--Streamline-Carbon.svg" xmlns="http://www.w3.org/2000/svg" viewBox="-0.5 -0.5 16 16" height="16" width="16"><desc>Logo Twitter Streamline Icon: https://streamlinehq.com</desc><defs></defs><path d="M5.412890624999999 12.071390625000001c4.24528125 0 6.56728125 -3.51721875 6.56728125 -6.56728125 0 -0.09989062500000001 0 -0.199359375 -0.00675 -0.298359375 0.451734375 -0.32671875 0.841640625 -0.7312968750000001 1.15153125 -1.19475 -0.42126562500000003 0.18665625 -0.868125 0.30909375 -1.3257187499999998 0.36314062500000005 0.481828125 -0.28846875 0.8424375 -0.7421718749999999 1.01475 -1.276640625 -0.45309375 0.268875 -0.94875 0.45834375 -1.465640625 0.56025 -0.874125 -0.929484375 -2.33625 -0.9743437499999998 -3.265734375 -0.10021875 -0.5994375 0.5637187499999999 -0.8537812499999999 1.403765625 -0.667734375 2.205328125 -1.855828125 -0.093046875 -3.584953125 -0.9696093749999999 -4.7569687499999995 -2.41153125 -0.612609375 1.054640625 -0.29971875 2.40384375 0.714609375 3.081140625 -0.3673125 -0.010875 -0.726609375 -0.10996875 -1.047609375 -0.28889062499999996v0.029249999999999998c0.00028125 1.0987031250000001 0.774796875 2.0450625000000002 1.85175 2.2626093750000003 -0.339796875 0.09267187499999999 -0.696328125 0.10621875 -1.04221875 0.039609375 0.302390625 0.9402187499999999 1.168921875 1.5843749999999999 2.156390625 1.6028906250000001 -0.8173125 0.642328125 -1.826953125 0.9910312499999999 -2.8665 0.99 -0.18365625 -0.000375 -0.367125 -0.011484375 -0.54946875 -0.03328125 1.0555312499999998 0.677390625 2.283703125 1.0366875 3.537890625 1.0350000000000001" fill="#000000" stroke-width="1"></path><path id="_Transparent_Rectangle_" d="M0 0h15v15H0Z" fill="none" stroke-width="1"></path></svg>